<svg width="38" height="38" viewBox="0 0 38 38" fill="none" xmlns="http://www.w3.org/2000/svg">
<path fill-rule="evenodd" clip-rule="evenodd" d="M6.33331 16.1501C6.33331 8.26508 12.35 3.16675 19 3.16675C25.65 3.16675 31.6666 8.26508 31.6666 16.1501C31.6666 21.1851 27.7875 27.1067 20.0608 33.9309C19.4591 34.4534 18.5566 34.4534 17.955 33.9309C10.2125 27.1067 6.33331 21.1851 6.33331 16.1501ZM19 20.2667C21.4484 20.2667 23.4333 18.2819 23.4333 15.8334C23.4333 13.385 21.4484 11.4001 19 11.4001C16.5515 11.4001 14.5666 13.385 14.5666 15.8334C14.5666 18.2819 16.5515 20.2667 19 20.2667Z" fill="#DDFF7C"/>
</svg>
