<svg width="202" height="27" viewBox="0 0 202 27" fill="none" xmlns="http://www.w3.org/2000/svg">
<g clip-path="url(#clip0_2005_839)">
<path d="M33.618 26.9984H25.5812C25.231 26.9984 24.9527 26.6974 24.9965 26.3532C25.317 23.843 27.4806 21.9041 30.1038 21.9041H33.6305C38.2891 21.9041 42.1754 18.2362 42.2536 13.6266C42.3318 8.92744 38.4829 5.09434 33.7588 5.09434C31.6999 5.09434 29.7177 5.83225 28.1731 7.17067L16.8988 17.2064C14.9524 18.9448 12.0306 18.9278 10.0937 17.276C9.8295 17.0507 9.83108 16.643 10.0906 16.4115L24.5807 3.51509C24.6322 3.46415 24.6964 3.41322 24.7479 3.36226L25.2889 2.91612C27.6947 1.03122 30.6806 0 33.7572 0C41.3109 0 47.4375 6.10085 47.4 13.5756C47.3609 21.0257 41.1328 26.9984 33.6164 26.9984H33.618Z" fill="white"/>
<path d="M13.6414 26.9999C6.08762 26.9999 -0.0388962 20.899 0.00018595 13.4243C0.039268 5.97419 6.2674 0.00146484 13.7962 0.00146484H21.833C22.1833 0.00146484 22.4614 0.302493 22.4178 0.646746C22.0973 3.15686 19.9336 5.0958 17.3105 5.0958H13.7712C9.11257 5.0958 5.22624 8.76372 5.14808 13.3733C5.07149 18.0725 8.91873 21.9056 13.6414 21.9056C15.7003 21.9056 17.6825 21.1676 19.227 19.8292L30.5 9.7934C32.4525 8.05052 35.3836 8.07214 37.319 9.73628C37.5831 9.96321 37.5598 10.3615 37.2986 10.5931L22.0863 24.0544C19.6803 25.9393 16.729 26.9984 13.6398 26.9984L13.6414 26.9999Z" fill="white"/>
<path d="M67.3774 4.31885V26.6925H61.9121V4.31885H67.3774ZM74.1973 4.31885V8.48319H55.2478V4.31885H74.1973Z" fill="white"/>
<path d="M81.8117 10.0662V26.6928H76.5487V10.0662H81.8117ZM76.2373 5.77891C76.2373 5.04132 76.5073 4.43689 77.047 3.96565C77.5868 3.4944 78.2874 3.25879 79.149 3.25879C80.0106 3.25879 80.7113 3.4944 81.251 3.96565C81.7908 4.43689 82.0608 5.04132 82.0608 5.77891C82.0608 6.51651 81.7908 7.12092 81.251 7.59217C80.7113 8.06341 80.0106 8.29904 79.149 8.29904C78.2874 8.29904 77.5868 8.06341 77.047 7.59217C76.5073 7.12092 76.2373 6.51651 76.2373 5.77891Z" fill="white"/>
<path d="M90.3442 13.5851V26.6927H85.0969V10.0661H90.0173L90.3442 13.5851ZM89.7059 17.8109L88.5069 17.8417C88.5069 16.6737 88.6471 15.598 88.9272 14.6146C89.2076 13.6312 89.6229 12.7758 90.173 12.0484C90.7231 11.3211 91.3978 10.7576 92.1972 10.3581C93.0068 9.95856 93.9411 9.75879 94.9999 9.75879C95.7368 9.75879 96.4064 9.87148 97.0085 10.0969C97.6106 10.312 98.1296 10.6552 98.5656 11.1264C99.0015 11.5874 99.3338 12.1918 99.5621 12.9397C99.8009 13.6773 99.9203 14.5634 99.9203 15.598V26.6927H94.6729V16.2589C94.6729 15.5519 94.5898 15.0193 94.4238 14.6607C94.2681 14.3022 94.0397 14.0614 93.7387 13.9385C93.4376 13.8156 93.0691 13.7541 92.6331 13.7541C92.1763 13.7541 91.7664 13.8566 91.403 14.0614C91.0397 14.2663 90.7283 14.5532 90.4688 14.922C90.2198 15.2805 90.0276 15.7057 89.8927 16.1975C89.7682 16.6891 89.7059 17.2269 89.7059 17.8109ZM99.3286 17.8109L97.8648 17.8417C97.8648 16.6737 97.9946 15.598 98.2542 14.6146C98.524 13.6312 98.9236 12.7758 99.453 12.0484C99.993 11.3211 100.662 10.7576 101.462 10.3581C102.261 9.95856 103.19 9.75879 104.249 9.75879C105.017 9.75879 105.723 9.87148 106.367 10.0969C107.01 10.3222 107.565 10.6859 108.033 11.1879C108.5 11.6899 108.863 12.3557 109.123 13.1855C109.382 14.0051 109.512 15.0193 109.512 16.2282V26.6927H104.249V16.2282C104.249 15.5417 104.166 15.0244 104 14.6761C103.844 14.3176 103.616 14.0768 103.315 13.9539C103.014 13.8207 102.656 13.7541 102.24 13.7541C101.742 13.7541 101.311 13.8566 100.948 14.0614C100.585 14.2663 100.278 14.5532 100.029 14.922C99.7905 15.2805 99.6141 15.7057 99.4998 16.1975C99.3857 16.6891 99.3286 17.2269 99.3286 17.8109Z" fill="white"/>
<path d="M120.676 27.0001C119.306 27.0001 118.081 26.7902 117.001 26.3701C115.922 25.9398 115.008 25.3508 114.261 24.6028C113.524 23.8551 112.958 22.9945 112.564 22.0214C112.18 21.0482 111.988 20.0186 111.988 18.9327V18.3488C111.988 17.1296 112.159 16.0027 112.501 14.9681C112.844 13.9231 113.353 13.0114 114.027 12.2328C114.702 11.4542 115.548 10.8498 116.565 10.4196C117.583 9.97904 118.766 9.75879 120.115 9.75879C121.309 9.75879 122.378 9.94832 123.323 10.3274C124.268 10.7064 125.067 11.2493 125.721 11.9562C126.385 12.6631 126.889 13.5185 127.231 14.5224C127.584 15.5263 127.761 16.6532 127.761 17.9031V20.0083H113.996V16.766H122.638V16.3664C122.648 15.8133 122.55 15.342 122.342 14.9527C122.145 14.5634 121.854 14.2663 121.47 14.0614C121.086 13.8566 120.619 13.7541 120.069 13.7541C119.498 13.7541 119.026 13.877 118.652 14.1229C118.288 14.3688 118.003 14.7068 117.795 15.1371C117.598 15.5571 117.458 16.0437 117.375 16.5969C117.292 17.1501 117.25 17.734 117.25 18.3488V18.9327C117.25 19.5473 117.333 20.1056 117.5 20.6076C117.676 21.1096 117.925 21.5399 118.247 21.8983C118.579 22.2467 118.974 22.5183 119.43 22.7128C119.897 22.9074 120.427 23.0047 121.019 23.0047C121.735 23.0047 122.441 22.8716 123.136 22.6053C123.832 22.3389 124.429 21.8983 124.927 21.2837L127.309 24.0804C126.967 24.5619 126.479 25.028 125.845 25.4788C125.223 25.9296 124.475 26.2984 123.603 26.5852C122.731 26.8618 121.756 27.0001 120.676 27.0001Z" fill="white"/>
<path d="M146.453 20.8727C146.453 20.5315 146.401 20.2253 146.298 19.9544C146.194 19.6733 146.002 19.4123 145.721 19.1715C145.441 18.9305 145.036 18.6897 144.506 18.4489C143.987 18.198 143.302 17.937 142.45 17.666C141.453 17.3448 140.493 16.9836 139.568 16.582C138.644 16.1706 137.819 15.6938 137.092 15.1519C136.365 14.5998 135.789 13.9575 135.363 13.2248C134.937 12.4821 134.724 11.619 134.724 10.6354C134.724 9.69199 134.942 8.84391 135.378 8.09117C135.815 7.32839 136.422 6.68104 137.201 6.14911C137.99 5.60714 138.914 5.19564 139.974 4.91462C141.033 4.62355 142.191 4.47803 143.447 4.47803C145.109 4.47803 146.573 4.75904 147.84 5.32109C149.117 5.8731 150.114 6.66096 150.831 7.6847C151.557 8.69838 151.921 9.89775 151.921 11.2828H146.485C146.485 10.7308 146.365 10.244 146.126 9.82248C145.898 9.40093 145.55 9.06973 145.083 8.82886C144.615 8.58799 144.029 8.46754 143.322 8.46754C142.637 8.46754 142.061 8.56791 141.593 8.76864C141.126 8.96937 140.773 9.24035 140.534 9.5816C140.295 9.9128 140.176 10.2791 140.176 10.6806C140.176 11.0118 140.269 11.3129 140.456 11.5839C140.654 11.8448 140.929 12.0907 141.282 12.3216C141.645 12.5524 142.082 12.7732 142.59 12.984C143.11 13.1947 143.691 13.4005 144.335 13.6012C145.54 13.9726 146.609 14.3891 147.544 14.8508C148.489 15.3024 149.283 15.8193 149.927 16.4014C150.581 16.9735 151.074 17.6258 151.407 18.3586C151.75 19.0911 151.921 19.9191 151.921 20.8426C151.921 21.8262 151.724 22.6994 151.329 23.462C150.934 24.2249 150.368 24.8722 149.631 25.4042C148.894 25.926 148.011 26.3225 146.983 26.5934C145.955 26.8645 144.807 27 143.541 27C142.377 27 141.23 26.8594 140.098 26.5784C138.977 26.2874 137.959 25.8458 137.045 25.2537C136.131 24.6514 135.399 23.8836 134.849 22.9503C134.309 22.0068 134.039 20.8877 134.039 19.593H139.522C139.522 20.2354 139.61 20.7774 139.787 21.2189C139.963 21.6605 140.223 22.0168 140.565 22.2878C140.908 22.5488 141.329 22.7394 141.827 22.86C142.326 22.9703 142.897 23.0255 143.541 23.0255C144.236 23.0255 144.797 22.9301 145.223 22.7394C145.649 22.5388 145.96 22.2778 146.158 21.9566C146.355 21.6254 146.453 21.2642 146.453 20.8727Z" fill="white"/>
<path d="M159.632 3.57471V26.6989H154.382V3.57471H159.632ZM159.009 17.9971L157.778 18.0272C157.778 16.8832 157.923 15.8292 158.215 14.8658C158.505 13.9023 158.921 13.0642 159.461 12.3516C160.001 11.639 160.649 11.087 161.407 10.6956C162.165 10.3042 163.006 10.1085 163.931 10.1085C164.761 10.1085 165.519 10.2239 166.205 10.4547C166.9 10.6856 167.498 11.0569 167.996 11.5688C168.504 12.0807 168.894 12.7481 169.164 13.5711C169.445 14.3941 169.584 15.3977 169.584 16.582V26.6989H164.304V16.5519C164.304 15.8894 164.206 15.3776 164.008 15.0163C163.821 14.645 163.551 14.3891 163.198 14.2486C162.845 14.098 162.415 14.0227 161.906 14.0227C161.292 14.0227 160.795 14.1231 160.41 14.3238C160.026 14.5245 159.731 14.8056 159.522 15.1669C159.326 15.5181 159.191 15.9347 159.117 16.4164C159.045 16.8982 159.009 17.425 159.009 17.9971Z" fill="white"/>
<path d="M178.042 10.4095V26.6988H172.778V10.4095H178.042ZM172.466 6.20923C172.466 5.48659 172.736 4.89444 173.276 4.43275C173.817 3.97108 174.517 3.74023 175.379 3.74023C176.241 3.74023 176.942 3.97108 177.482 4.43275C178.022 4.89444 178.292 5.48659 178.292 6.20923C178.292 6.93185 178.022 7.524 177.482 7.98569C176.942 8.44736 176.241 8.67821 175.379 8.67821C174.517 8.67821 173.817 8.44736 173.276 7.98569C172.736 7.524 172.466 6.93185 172.466 6.20923Z" fill="white"/>
<path d="M187.716 26.6991H182.436V9.08499C182.436 7.82039 182.701 6.75652 183.23 5.89337C183.76 5.03024 184.508 4.37786 185.473 3.93626C186.44 3.48461 187.581 3.25879 188.901 3.25879C189.357 3.25879 189.787 3.28889 190.192 3.34911C190.597 3.40934 190.993 3.48461 191.377 3.57494L191.393 7.30853C191.205 7.25834 191.013 7.22321 190.816 7.20315C190.619 7.18307 190.374 7.17303 190.084 7.17303C189.576 7.17303 189.144 7.2483 188.791 7.39885C188.438 7.53936 188.168 7.75514 187.981 8.04621C187.805 8.32723 187.716 8.67348 187.716 9.08499V26.6991ZM190.987 10.4098V13.9326H180.006V10.4098H190.987Z" fill="white"/>
<path d="M201.75 10.4096V13.9324H191.595V10.4096H201.75ZM193.728 6.35986H198.979V21.3846C198.979 21.8161 199.03 22.1524 199.134 22.3932C199.238 22.6241 199.415 22.7897 199.663 22.8901C199.923 22.9804 200.266 23.0255 200.691 23.0255C200.992 23.0255 201.242 23.0204 201.44 23.0105C201.636 22.9903 201.824 22.9653 202 22.9352V26.5633C201.553 26.7039 201.086 26.8093 200.598 26.8796C200.11 26.9598 199.591 27 199.04 27C197.919 27 196.959 26.8293 196.158 26.4881C195.37 26.1468 194.768 25.6099 194.352 24.8772C193.936 24.1446 193.728 23.1911 193.728 22.0168V6.35986Z" fill="white"/>
</g>
<defs>
<clipPath id="clip0_2005_839">
<rect width="202" height="27" fill="white"/>
</clipPath>
</defs>
</svg>
