<svg width="48" height="27" viewBox="0 0 48 27" fill="none" xmlns="http://www.w3.org/2000/svg">
<g clip-path="url(#clip0_2007_39)">
<path d="M33.618 26.9985H25.5812C25.231 26.9985 24.9527 26.6974 24.9965 26.3532C25.317 23.843 27.4806 21.9041 30.1038 21.9041H33.6305C38.2891 21.9041 42.1754 18.2362 42.2536 13.6266C42.3318 8.92744 38.4829 5.09434 33.7588 5.09434C31.6999 5.09434 29.7177 5.83225 28.1731 7.17067L16.8988 17.2064C14.9524 18.9448 12.0306 18.9278 10.0937 17.276C9.8295 17.0507 9.83108 16.643 10.0906 16.4115L24.5807 3.51509C24.6322 3.46415 24.6964 3.41322 24.7479 3.36226L25.2889 2.91612C27.6947 1.03122 30.6806 0 33.7572 0C41.3109 0 47.4375 6.10085 47.4 13.5756C47.3609 21.0257 41.1328 26.9985 33.6164 26.9985H33.618Z" fill="white"/>
<path d="M13.6414 26.9999C6.08762 26.9999 -0.0388962 20.899 0.00018595 13.4243C0.039268 5.97419 6.2674 0.00146484 13.7962 0.00146484H21.833C22.1833 0.00146484 22.4614 0.302493 22.4178 0.646746C22.0973 3.15686 19.9336 5.0958 17.3105 5.0958H13.7712C9.11257 5.0958 5.22624 8.76372 5.14808 13.3733C5.07149 18.0725 8.91873 21.9056 13.6414 21.9056C15.7003 21.9056 17.6825 21.1676 19.227 19.8292L30.5 9.7934C32.4525 8.05052 35.3836 8.07214 37.319 9.73628C37.5831 9.96321 37.5598 10.3615 37.2986 10.5931L22.0863 24.0544C19.6803 25.9393 16.729 26.9984 13.6398 26.9984L13.6414 26.9999Z" fill="white"/>
</g>
<defs>
<clipPath id="clip0_2007_39">
<rect width="48" height="27" fill="white"/>
</clipPath>
</defs>
</svg>
