<svg width="30" height="30" viewBox="0 0 30 30" fill="none" xmlns="http://www.w3.org/2000/svg">
<path d="M25.6087 21.4248L20.5275 16.8048C20.2874 16.5862 19.9717 16.4696 19.6472 16.4796C19.3227 16.4896 19.0148 16.6255 18.7887 16.8586L15.7975 19.9348C15.0775 19.7973 13.63 19.3461 12.14 17.8598C10.65 16.3686 10.1987 14.9173 10.065 14.2023L13.1387 11.2098C13.3718 10.9837 13.5077 10.6758 13.5177 10.3513C13.5277 10.0268 13.4111 9.71111 13.1925 9.47106L8.57374 4.39106C8.35504 4.15026 8.05109 4.00419 7.72643 3.98389C7.40177 3.96358 7.08198 4.07063 6.83499 4.28231L4.12249 6.60856C3.90638 6.82545 3.77739 7.11412 3.75999 7.41981C3.74124 7.73231 3.38374 15.1348 9.12374 20.8773C14.1312 25.8836 20.4037 26.2498 22.1312 26.2498C22.3837 26.2498 22.5387 26.2423 22.58 26.2398C22.8854 26.2218 23.1736 26.0924 23.39 25.8761L25.715 23.1623C25.9275 22.9161 26.0353 22.5966 26.0155 22.2719C25.9956 21.9473 25.8497 21.6433 25.6087 21.4248Z" fill="#DDFF7C"/>
</svg>
