<svg width="96" height="96" viewBox="0 0 96 96" fill="none" xmlns="http://www.w3.org/2000/svg">
<path d="M37.5907 15.6457C37.3671 11.7021 34.1688 8.57837 30.1507 8.57837C26.0613 8.57837 22.7139 11.9257 22.7139 16.0151C22.7139 20.1078 26.0613 23.4551 30.1507 23.4551C31.2686 23.4551 32.3088 23.2315 33.2745 22.7843C33.7216 19.7351 35.2835 17.2076 37.5907 15.6457ZM25.6886 16.0151C25.6886 13.5621 27.6977 11.5531 30.1507 11.5531C32.6069 11.5531 34.616 13.5621 34.616 16.0151C34.616 18.4713 32.6069 20.4804 30.1507 20.4804C27.6977 20.4804 25.6886 18.4713 25.6886 16.0151ZM33.1286 24.9424H25.6886C21.3756 24.9424 18.2518 28.2153 18.2518 32.6773V43.685C18.2518 45.6195 19.8882 47.2527 21.8973 47.2527H22.7139V52.6091L25.6886 54.6926V35.0558C25.6886 34.2392 25.0211 33.5684 24.2013 33.5684C23.3847 33.5684 22.7139 34.2392 22.7139 35.0558V44.278H21.8973C21.5247 44.278 21.2265 43.9831 21.2265 43.685V32.6773C21.2265 30.3701 22.6394 27.9171 25.6886 27.9171H33.1286V24.9424Z" fill="#DDFF7C"/>
<path d="M1.96179 67.5573L2.03632 67.6318L19.1425 79.3103L19.3661 79.4593C19.6643 79.6829 19.9624 79.832 20.186 80.0523L18.0278 80.7976C16.4659 81.3193 15.6494 82.9557 16.1678 84.5176L19.2916 94.5564C19.5152 95.2272 20.1114 95.5998 20.7044 95.5998C20.8535 95.5998 21.0025 95.5998 21.1516 95.5253C21.9714 95.3017 22.3408 94.4073 22.1205 93.6653L18.9967 83.6233L40.4905 76.3356L43.6143 86.2998C43.8378 87.1197 44.729 87.4923 45.4743 87.2687C46.2909 87.0451 46.6635 86.154 46.4399 85.4087L43.3161 75.4412C43.0925 74.6992 42.5708 74.0284 41.8288 73.659C41.0835 73.2864 40.2669 73.2118 39.5216 73.5099L36.6959 74.4756L36.3233 68.0045V67.8554C36.3233 67.7809 36.3233 67.7064 36.252 67.6318C36.1775 67.4115 36.1775 67.2624 36.1029 67.0388C35.8048 65.9241 35.2831 65.4024 34.8359 64.8807C34.7614 64.8062 34.6901 64.8062 34.6901 64.7317L18.7731 53.4291C17.5094 52.3112 15.6494 51.5691 13.8639 51.5691C13.1186 51.5691 12.3765 51.7182 11.7058 52.0131L11.1873 35.5777C11.3331 34.1649 10.8892 32.9011 9.92028 31.8577C8.95463 30.743 7.61634 30.1468 6.12898 30.0722C3.2288 29.9264 0.698022 32.2303 0.399902 35.1305V35.2796L0.548962 64.1387C0.399903 65.5515 0.996142 66.7407 1.96179 67.5573ZM5.97992 33.1247C6.64745 33.1247 7.24369 33.4196 7.61634 33.8668C7.98899 34.3139 8.20933 34.8324 8.13805 35.4286V35.6522L8.73104 54.9165C8.43293 55.5095 8.28387 56.1057 8.20934 56.7732C8.06352 58.3351 8.58198 59.9715 9.69993 61.0894C9.77122 61.164 9.84575 61.2385 9.92028 61.2385L19.5152 68.4517C20.186 68.9734 21.0771 68.8243 21.5988 68.1535C22.1205 67.486 21.9714 66.5917 21.3007 66.07L11.7803 58.9313C11.3331 58.4096 11.1128 57.7421 11.1873 57.0713C11.2618 56.2548 11.7058 55.5095 12.4511 54.991C13.4912 54.2457 15.5748 54.6183 16.8386 55.733C16.9131 55.733 16.9131 55.8076 16.9877 55.8076L32.8301 67.1134L32.9046 67.1879V67.2624C32.9046 67.2624 32.9046 67.337 32.9792 67.337C32.9792 67.337 32.9792 67.4115 33.0537 67.4115V67.486C33.0537 67.486 33.0537 67.5573 33.1282 67.5573V67.7064C33.1282 67.7064 33.1282 67.7809 33.1995 67.7809V67.8554C33.1995 67.93 33.1995 67.93 33.2741 68.0045C33.2741 68.079 33.2741 68.1535 33.3486 68.2281V68.3771L33.7212 75.5158L23.1607 79.0867C22.639 78.1956 21.7478 77.5993 21.0771 77.0776L3.82179 65.1788C3.5982 64.9553 3.52368 64.7317 3.52368 64.4335V64.2877L3.37786 35.4286C3.52368 34.1649 4.71615 33.0502 5.97992 33.1247Z" fill="#DDFF7C"/>
<path d="M89.874 30.1468C88.3867 30.2214 87.0484 30.8176 86.0827 31.9323C85.1883 32.9757 84.7412 34.314 84.8157 35.6523L84.4463 48.9639C85.3374 49.1875 86.1572 49.5601 86.8993 50.0818C87.0484 50.1564 87.1974 50.3054 87.3465 50.4512L87.7904 35.6523V35.4287C87.7191 34.8325 87.9395 34.2395 88.3121 33.8668C88.6848 33.4196 89.281 33.1248 89.9485 33.1248C91.2123 33.0502 92.4048 34.0904 92.5506 35.4287L92.4048 64.2878V64.4336C92.4048 64.7317 92.3303 65.0299 92.1067 65.1789L75.0004 76.8574L74.7769 77.0032C74.1061 77.5249 73.215 78.1211 72.6933 79.0122L62.1327 75.4413L62.5053 68.3027V68.1536C62.5053 68.0791 62.5053 68.0046 62.5799 67.93C62.5799 67.8555 62.5799 67.8555 62.6544 67.781V67.7064C62.6544 67.7064 62.6544 67.6319 62.7289 67.6319V67.5574V67.4861C62.7289 67.4861 62.7289 67.4116 62.8035 67.4116V67.337C62.8035 67.337 62.8035 67.2625 62.8748 67.2625C62.8748 67.2625 62.8748 67.188 62.9493 67.188L63.0238 67.1134L78.8663 55.8076C78.9408 55.8076 78.9408 55.7331 79.0153 55.7331C80.2791 54.6184 82.3627 54.2458 83.4029 54.9911C84.1482 55.5095 84.5953 56.2548 84.6666 57.0714C84.7412 57.7422 84.5208 58.4097 84.0736 58.9314L74.5533 66.07C73.8825 66.5917 73.7334 67.4861 74.2551 68.1536C74.7769 68.8244 75.668 68.9734 76.3387 68.4517L85.9336 61.2386C86.0082 61.164 86.0827 61.164 86.1572 61.0895C87.2719 59.897 87.7904 58.3352 87.6446 56.7733C87.4955 55.0624 86.5266 53.575 85.1138 52.5348C82.6608 50.8239 79.1644 51.6437 77.0808 53.4292L61.3874 64.7317C61.3129 64.8063 61.2416 64.8063 61.2416 64.8808C60.7944 65.328 60.2727 65.9242 59.9746 67.0389C59.9 67.188 59.9 67.4116 59.8255 67.6319C59.8255 67.7064 59.8255 67.781 59.751 67.8555V68.0046L59.3816 74.4757L56.5559 73.51C55.8106 73.2119 54.994 73.2864 54.2487 73.6591C53.5034 74.0285 52.985 74.6247 52.7614 75.4413L49.6376 85.4088C49.414 86.2286 49.8612 87.0452 50.6033 87.2688C51.4231 87.4924 52.2397 87.0452 52.4633 86.2999L55.587 76.3357L77.0808 83.6233L73.957 93.6654C73.7367 94.4819 74.1806 95.3018 74.9259 95.5254C75.075 95.5966 75.224 95.5966 75.3699 95.5966C76.0406 95.5966 76.5623 95.2272 76.7859 94.5565L79.9097 84.5177C80.4282 82.9558 79.537 81.3194 78.0497 80.7977L75.8916 80.0524C76.1151 79.8321 76.4133 79.6085 76.7114 79.4594L93.9667 67.6319L94.038 67.5574C95.0814 66.7408 95.5998 65.477 95.454 64.2133L95.5998 35.3542V35.2051C95.305 32.3049 92.7742 30.0723 89.874 30.1468Z" fill="#DDFF7C"/>
<path d="M28.6633 47.9241V56.8482L31.638 58.9318V47.9241C31.638 47.1075 30.9705 46.4368 30.1507 46.4368C29.3341 46.4368 28.6633 47.1075 28.6633 47.9241Z" fill="#DDFF7C"/>
<path d="M48.0026 15.2734C52.092 15.2734 55.4394 11.926 55.4394 7.83665C55.4394 3.74401 52.092 0.399902 48.0026 0.399902C43.9132 0.399902 40.5658 3.74401 40.5658 7.83665C40.5658 11.926 43.9132 15.2734 48.0026 15.2734ZM48.0026 3.3746C50.4556 3.3746 52.4646 5.38041 52.4646 7.83665C52.4646 10.2896 50.4556 12.2987 48.0026 12.2987C45.5496 12.2987 43.5405 10.2896 43.5405 7.83665C43.5405 5.38041 45.5496 3.3746 48.0026 3.3746Z" fill="#DDFF7C"/>
<path d="M43.5393 59.155H51.8705C53.7272 59.155 55.3636 57.5186 55.3636 55.7332L55.4382 39.0742H56.3325C58.3384 39.0742 59.9002 37.4378 59.9002 35.5033V24.4956C59.9002 20.0336 56.7765 16.7607 52.4635 16.7607H43.5393C39.2263 16.7607 36.1025 20.0336 36.1025 24.4956V35.5033C36.1025 37.4378 37.739 39.0742 39.7448 39.0742H40.5646V55.8077C40.5646 57.6677 41.9029 59.155 43.5393 59.155ZM39.7448 36.0995C39.3754 36.0995 39.0773 35.8014 39.0773 35.5033V24.4956C39.0773 22.1917 40.4901 19.7354 43.5393 19.7354H52.4635C55.5127 19.7354 56.9255 22.1917 56.9255 24.4956V35.5033C56.9255 35.8014 56.6274 36.0995 56.3325 36.0995H55.4382V26.4301C55.4382 25.6103 54.7706 24.9428 53.9508 24.9428C53.1342 24.9428 52.4635 25.6103 52.4635 26.4301V55.7332C52.4635 55.8822 52.0908 56.1803 51.9418 56.1803H49.4887V39.7417C49.4887 38.9251 48.818 38.2544 48.0014 38.2544C47.1848 38.2544 46.514 38.9251 46.514 39.7417V56.1803H43.6139C43.5393 56.1058 43.5393 55.9567 43.5393 55.8077V26.8773C43.5393 26.0575 42.8686 25.3867 42.052 25.3867C41.2321 25.3867 40.5646 26.0575 40.5646 26.8773V36.0995H39.7448ZM71.8023 33.5688C70.9825 33.5688 70.315 34.2395 70.315 35.0561V54.7675L73.2897 52.6839V47.253H74.1063C76.1153 47.253 77.7518 45.6198 77.7518 43.6853V32.6776C77.7518 28.2156 74.628 24.9428 70.315 24.9428H62.875V27.9175H70.315C73.3642 27.9175 74.7771 30.3705 74.7771 32.6776V43.6853C74.7771 43.9834 74.4789 44.2783 74.1063 44.2783H73.2897V35.0561C73.2897 34.2395 72.6189 33.5688 71.8023 33.5688ZM64.3656 47.9238V58.9314L67.3403 56.8479V47.9238C67.3403 47.1072 66.6695 46.4364 65.8529 46.4364C65.0331 46.4364 64.3656 47.1072 64.3656 47.9238Z" fill="#DDFF7C"/>
<path d="M36.9191 62.8006C37.1426 63.021 37.3662 63.2446 37.5898 63.5427V41.7509C36.3973 41.3783 35.3572 40.6362 34.6151 39.6674V61.1642L36.3973 62.428C36.5464 62.5025 36.77 62.6516 36.9191 62.8006ZM59.0836 62.8006C59.2326 62.6516 59.4562 62.5025 59.6053 62.3535L61.3875 61.0897V39.6674C60.6455 40.6362 59.6053 41.3038 58.4128 41.7509V63.5427C58.6364 63.2446 58.86 63.021 59.0836 62.8006ZM65.8528 8.57886C61.9092 8.57886 58.6364 11.7026 58.4128 15.6462C60.72 17.2081 62.2819 19.7356 62.7291 22.7848C63.6947 23.232 64.7349 23.4556 65.8528 23.4556C69.9423 23.4556 73.2896 20.1082 73.2896 16.0156C73.2896 11.9262 69.9423 8.57886 65.8528 8.57886ZM65.8528 20.4809C63.3966 20.4809 61.3875 18.4718 61.3875 16.0156C61.3875 13.5626 63.3966 11.5536 65.8528 11.5536C68.3058 11.5536 70.3149 13.5626 70.3149 16.0156C70.3149 18.4718 68.3058 20.4809 65.8528 20.4809Z" fill="#DDFF7C"/>
</svg>
