<svg width="94" height="94" viewBox="0 0 94 94" fill="none" xmlns="http://www.w3.org/2000/svg">
<path d="M48.5502 85.7266C48.5502 85.9319 48.5105 86.13 48.4312 86.3174C48.352 86.5083 48.2403 86.6776 48.0961 86.8217C47.9484 86.9658 47.7826 87.0775 47.5917 87.1568C47.4043 87.236 47.2061 87.2756 47.0007 87.2756C46.7953 87.2756 46.5972 87.236 46.4062 87.1568C46.2188 87.0775 46.0494 86.9658 45.9053 86.8217C45.7576 86.6776 45.6459 86.5083 45.5702 86.3174C45.4909 86.13 45.4513 85.9319 45.4513 85.7266C45.4513 85.5212 45.4909 85.3231 45.5702 85.1322C45.6459 84.9448 45.7576 84.7755 45.9053 84.6314C46.0494 84.4873 46.2188 84.3756 46.4062 84.2964C46.5972 84.2171 46.7953 84.1775 47.0007 84.1775C47.2061 84.1775 47.4043 84.2171 47.5917 84.2964C47.7826 84.3756 47.9484 84.4873 48.0961 84.6314C48.2403 84.7755 48.352 84.9448 48.4312 85.1322C48.5105 85.3231 48.5502 85.5212 48.5502 85.7266Z" fill="#DDFF7C"/>
<path d="M63.4725 67.7205C64.9066 66.971 66.2831 66.1241 67.6019 65.1872C68.9207 64.2503 70.1711 63.2269 71.3529 62.117C72.5312 61.0108 73.6338 59.8252 74.6536 58.5676C75.6733 57.31 76.603 55.9911 77.4426 54.6073C78.2821 53.2236 79.0244 51.7894 79.6694 50.3012C80.3144 48.8165 80.8549 47.2958 81.2945 45.7355C81.7305 44.1788 82.062 42.5969 82.2854 40.9933C82.5088 39.3898 82.6205 37.779 82.6241 36.161C82.6241 16.5147 66.6434 0.533203 47.0017 0.533203C27.3564 0.533203 11.3756 16.5147 11.3756 36.161C11.3792 37.779 11.4945 39.3898 11.7179 40.9933C11.9413 42.5969 12.2692 44.1788 12.7088 45.7355C13.1448 47.2958 13.6889 48.8165 14.3339 50.3012C14.9789 51.7894 15.7212 53.2236 16.5608 54.6073C17.4004 55.9911 18.33 57.31 19.3498 58.5676C20.3695 59.8252 21.4685 61.0108 22.6504 62.117C23.8287 63.2269 25.079 64.2503 26.3979 65.1872C27.7203 66.1241 29.0968 66.971 30.5309 67.7205C10.6225 69.2195 0.533203 73.45 0.533203 80.3039C0.533203 91.1865 25.8033 93.4711 47.0017 93.4711C68.2 93.4711 93.4665 91.1865 93.4665 80.3039C93.4665 73.45 83.3808 69.2195 63.4725 67.7205ZM14.4745 36.161C14.4745 18.2264 29.0643 3.63221 47.0017 3.63221C64.9354 3.63221 79.5289 18.2264 79.5289 36.161C79.5253 37.7105 79.41 39.2528 79.1902 40.7879C78.9668 42.323 78.6353 43.8329 78.1956 45.3211C77.7597 46.8094 77.2155 48.258 76.5705 49.6669C75.9256 51.0759 75.1869 52.4344 74.3473 53.7389C73.5077 55.0434 72.5817 56.283 71.5655 57.4541C70.553 58.6252 69.4576 59.7207 68.2865 60.7369C67.1154 61.7531 65.8795 62.6828 64.5751 63.5224C63.2743 64.362 61.9158 65.1043 60.5069 65.7494C60.3376 65.8286 60.1862 65.9331 60.0529 66.0629L48.0214 78.131C47.744 78.376 47.4197 78.5058 47.0521 78.5166C46.6846 78.531 46.3531 78.4265 46.0576 78.2031L41.7336 73.868L41.712 73.8464L33.9468 66.0629C33.8135 65.9331 33.6658 65.8286 33.4928 65.7494C32.0839 65.1043 30.7291 64.362 29.4247 63.5224C28.1203 62.6828 26.8843 61.7531 25.7132 60.7369C24.5422 59.7207 23.4503 58.6252 22.4342 57.4541C21.4181 56.283 20.492 55.0434 19.656 53.7389C18.8165 52.4344 18.0742 51.0759 17.4292 49.6669C16.7842 48.258 16.2437 46.8094 15.8041 45.3211C15.3681 43.8329 15.0366 42.323 14.8132 40.7879C14.5898 39.2528 14.4781 37.7105 14.4745 36.161ZM47.0017 90.3721C20.2506 90.3721 3.63206 86.5163 3.63206 80.3039C3.63206 75.2302 14.7339 71.7059 34.0946 70.5961L37.1033 73.6122C27.378 74.1563 14.4745 75.7419 14.4745 80.3039C14.4745 85.4569 30.92 86.8154 40.7247 87.165H40.7787C40.9841 87.1686 41.1823 87.1325 41.3733 87.0569C41.5643 86.9812 41.7336 86.8731 41.8813 86.7326C42.0291 86.5884 42.1444 86.4227 42.2273 86.2353C42.3101 86.0443 42.3534 85.8497 42.357 85.6443C42.3606 85.4389 42.3246 85.2407 42.2489 85.0497C42.1732 84.8587 42.0651 84.6894 41.921 84.5416C41.7805 84.3939 41.6147 84.2786 41.4237 84.1957C41.2364 84.1128 41.0382 84.0696 40.8328 84.066C26.0051 83.5398 19.1192 81.4102 17.7391 80.3039C19.0939 79.2193 25.7781 77.1508 40.0617 76.5743L43.9352 80.4625C44.8 81.2192 45.8126 81.5976 46.9656 81.5976C48.1692 81.594 49.2249 81.1904 50.1294 80.3904L53.9345 76.5743C68.218 77.1544 74.895 79.2193 76.2571 80.3039C74.8698 81.4102 67.991 83.5398 53.1598 84.0696C52.9544 84.0732 52.7598 84.1164 52.5724 84.1993C52.3814 84.2822 52.2157 84.3975 52.0752 84.5452C51.931 84.693 51.8229 84.8623 51.7472 85.0533C51.6716 85.2443 51.6355 85.4425 51.6392 85.6479C51.6428 85.8533 51.686 86.0479 51.7689 86.2389C51.8481 86.4263 51.9635 86.592 52.1112 86.7362C52.2589 86.8767 52.4283 86.9848 52.6193 87.0605C52.8102 87.1361 53.0084 87.1722 53.2138 87.1686H53.2715C63.0833 86.8154 79.5289 85.4569 79.5289 80.3039C79.5289 75.7455 66.6254 74.1599 56.9 73.6122L59.9052 70.5961C79.2694 71.7059 90.3713 75.2302 90.3713 80.3039C90.3713 86.5163 73.7528 90.3721 47.0017 90.3721Z" fill="#DDFF7C"/>
<path d="M76.4291 36.1608C76.4291 19.9306 63.2265 6.73096 47.0007 6.73096C30.7714 6.73096 17.5724 19.9306 17.5724 36.1608C17.5724 52.3873 30.7714 65.5905 47.0007 65.5905C63.2265 65.5905 76.4291 52.3873 76.4291 36.1608ZM20.6676 36.1608C20.6676 21.6386 32.4793 9.82636 47.0007 9.82636C61.5221 9.82636 73.3302 21.6386 73.3302 36.1608C73.3302 50.6829 61.5221 62.4915 47.0007 62.4915C32.4793 62.4915 20.6676 50.6829 20.6676 36.1608Z" fill="#DDFF7C"/>
<path d="M60.9395 50.0976V38.7255C61.4403 38.5454 61.9232 38.3256 62.3844 38.0661C62.8492 37.8031 63.2852 37.504 63.696 37.1689C64.1068 36.8302 64.4888 36.4626 64.8383 36.0627C65.1842 35.6627 65.4977 35.2339 65.7751 34.7799C66.049 34.3259 66.2868 33.8502 66.4814 33.3566C66.676 32.8629 66.8273 32.3549 66.9354 31.836C67.0435 31.3135 67.1084 30.791 67.1264 30.2577C67.148 29.728 67.1192 29.1983 67.0507 28.6723C66.4381 23.4583 60.9179 19.6171 55.8047 20.9035C55.5093 19.9702 55.0733 19.1054 54.5003 18.3091C53.9274 17.5128 53.2464 16.8245 52.4536 16.2444C51.6609 15.6679 50.7997 15.2247 49.8665 14.922C48.9332 14.6157 47.9783 14.4644 46.9982 14.4644C46.0145 14.4644 45.0596 14.6157 44.1264 14.922C43.1931 15.2247 42.3319 15.6679 41.5392 16.2444C40.75 16.8245 40.0654 17.5128 39.4925 18.3091C38.9196 19.1054 38.4836 19.9702 38.1881 20.9035C33.0714 19.6207 27.5583 23.4583 26.9457 28.6723C26.8736 29.202 26.8484 29.728 26.8664 30.2613C26.8881 30.791 26.9493 31.3171 27.061 31.8396C27.1691 32.3585 27.3205 32.8665 27.515 33.3602C27.7132 33.8538 27.9474 34.3295 28.2249 34.7835C28.4987 35.2375 28.8122 35.6627 29.1618 36.0627C29.5113 36.4663 29.8932 36.8338 30.304 37.1689C30.7148 37.504 31.1544 37.8031 31.6156 38.0661C32.0804 38.3256 32.5597 38.5454 33.0606 38.7255V50.0976C33.0606 50.4039 33.0894 50.7066 33.1506 51.0057C33.2083 51.3047 33.2984 51.5966 33.4137 51.8777C33.5326 52.1587 33.6731 52.4254 33.8425 52.6812C34.0118 52.9334 34.2064 53.1677 34.4226 53.3839C34.6388 53.6001 34.873 53.791 35.1253 53.964C35.3811 54.1334 35.6477 54.2739 35.9288 54.3928C36.2099 54.5081 36.5017 54.5982 36.8008 54.6558C37.0999 54.7171 37.4026 54.7459 37.7088 54.7459H56.2948C56.5975 54.7459 56.9001 54.7171 57.1992 54.6558C57.4983 54.5982 57.7902 54.5081 58.0712 54.3928C58.3559 54.2739 58.6225 54.1334 58.8748 53.964C59.1306 53.791 59.3648 53.6001 59.581 53.3839C59.7972 53.1677 59.9882 52.9334 60.1576 52.6812C60.3269 52.4254 60.471 52.1587 60.5863 51.8777C60.7053 51.5966 60.7917 51.3047 60.853 51.0057C60.9106 50.7066 60.9395 50.4039 60.9395 50.0976ZM30.0193 29.0866C30.1166 28.4813 30.2968 27.9012 30.5598 27.3462C30.8229 26.7913 31.1616 26.2869 31.5724 25.8328C31.9868 25.3752 32.4552 24.9897 32.9777 24.6726C33.5038 24.3519 34.0623 24.1177 34.6568 23.9627C38.4115 22.9178 42.4544 26.0562 42.3535 29.9623C42.3535 30.1676 42.3932 30.3658 42.4724 30.5568C42.5517 30.7442 42.6634 30.9135 42.8075 31.0577C42.9517 31.2054 43.121 31.3171 43.312 31.3928C43.4994 31.472 43.6976 31.5117 43.903 31.5117C44.1083 31.5117 44.3065 31.472 44.4975 31.3928C44.6849 31.3171 44.8542 31.2054 44.9984 31.0577C45.1425 30.9135 45.2542 30.7442 45.3335 30.5568C45.4127 30.3658 45.4524 30.1676 45.4524 29.9623C45.4488 29.1767 45.3515 28.402 45.1533 27.6381C44.9551 26.8778 44.6633 26.1535 44.2849 25.4653C43.903 24.7771 43.4381 24.1465 42.8976 23.5736C42.3571 23.0042 41.7518 22.5106 41.0852 22.0926C41.2761 21.4008 41.5788 20.763 41.9896 20.1756C42.404 19.5919 42.9048 19.0946 43.4922 18.6838C44.0795 18.2731 44.7173 17.974 45.4091 17.7866C46.101 17.5992 46.8036 17.538 47.5171 17.5956C48.2305 17.6569 48.9152 17.8335 49.5674 18.1325C50.216 18.4316 50.7997 18.8316 51.3114 19.3324C51.8231 19.8333 52.2338 20.4062 52.5437 21.0512C52.8572 21.6998 53.0482 22.3773 53.1203 23.0907C53.1491 23.3357 53.232 23.5627 53.3689 23.7681C53.5058 23.9735 53.6824 24.1393 53.8986 24.2582C54.1112 24.3807 54.3418 24.4492 54.5904 24.4636C54.8354 24.4744 55.0733 24.4312 55.3003 24.3303C58.8928 22.543 63.5086 25.1734 63.9807 29.0866C64.0347 29.4758 64.0491 29.865 64.0311 30.2541C64.0095 30.6433 63.9519 31.0288 63.8618 31.4108C63.7681 31.7891 63.642 32.1567 63.4798 32.5134C63.3177 32.8665 63.1231 33.2052 62.8997 33.5259C62.6727 33.843 62.4204 34.1385 62.1394 34.4124C61.8583 34.6826 61.5556 34.9276 61.2313 35.1402C60.9034 35.3564 60.5611 35.5402 60.1972 35.6879C59.8369 35.8393 59.4657 35.9546 59.0838 36.0339C58.7234 36.1095 58.4244 36.2861 58.1937 36.5707C57.9595 36.859 57.8442 37.1833 57.8442 37.5545V43.9035H36.1594V37.5545C36.1594 37.1833 36.0405 36.859 35.8099 36.5707C35.5757 36.2861 35.2802 36.1095 34.9163 36.0339C34.5343 35.9546 34.1632 35.8393 33.8028 35.6879C33.4425 35.5402 33.0966 35.3564 32.7723 35.1402C32.4444 34.9276 32.1417 34.6826 31.8606 34.4124C31.5796 34.1385 31.3274 33.843 31.1003 33.5259C30.8769 33.2052 30.6824 32.8665 30.5202 32.5134C30.3617 32.1567 30.2319 31.7891 30.1419 31.4108C30.0482 31.0288 29.9905 30.6433 29.9725 30.2541C29.9509 29.865 29.9689 29.4758 30.0193 29.0866ZM36.1594 50.0976V47.0024H57.8442V50.0976C57.8442 50.303 57.8046 50.5012 57.7253 50.6922C57.646 50.8795 57.5343 51.0489 57.3902 51.193C57.2425 51.3408 57.0767 51.4525 56.8857 51.5281C56.6984 51.6074 56.5002 51.6471 56.2948 51.6471H37.7088C37.5035 51.6471 37.3053 51.6074 37.1143 51.5281C36.9233 51.4525 36.7576 51.3408 36.6134 51.193C36.4657 51.0489 36.354 50.8795 36.2747 50.6922C36.199 50.5012 36.1594 50.303 36.1594 50.0976Z" fill="#DDFF7C"/>
</svg>
