<svg width="114" height="66" viewBox="0 0 114 66" fill="none" xmlns="http://www.w3.org/2000/svg">
<path d="M90.0619 42.7448H89.6724L94.8827 46.1144C95.7226 46.6323 95.9509 47.7657 95.4 48.5761C95.044 49.094 94.4931 49.3834 93.9118 49.3834C93.5892 49.3834 93.2331 49.2859 92.941 49.094L82.6543 42.4524C82.0061 42.0319 81.6835 41.2246 81.9087 40.4446C82.1369 39.7013 82.8156 39.1833 83.6251 39.1833H90.0619C91.1941 39.1833 92.1314 38.245 92.1314 37.1116C92.1314 35.9752 91.1941 35.0369 90.0619 35.0369H83.5278L76.2145 47.7017C75.8919 48.2501 75.3106 48.6065 74.6623 48.6065C74.0171 48.6065 73.4328 48.2836 73.1102 47.7017L65.2796 34.1625C64.7957 33.3216 65.0878 32.2187 65.9278 31.7343C66.7678 31.2469 67.8695 31.5393 68.3534 32.3833L74.6319 43.2628L80.9074 32.3833C81.23 31.8318 81.8113 31.4754 82.4595 31.4754H90.0285C93.1358 31.4754 95.6587 34.001 95.6587 37.1116C95.6587 40.2192 93.1692 42.7448 90.0619 42.7448ZM112.449 25.7416C112.772 25.9366 113 26.3266 113 26.7135V49.2219C113 49.6119 112.805 49.9684 112.449 50.1938L104.716 54.9557C104.491 57.5453 102.71 59.684 100.251 60.2995C90.2232 62.7916 79.4192 64.3789 68.1617 64.9943H67.9973C66.4787 64.9943 65.1852 63.861 64.8596 62.3377C64.5704 60.9454 63.21 59.943 61.594 59.943H52.5034C50.8843 59.943 49.4935 60.9454 49.2348 62.3377C48.9122 63.9249 47.5213 65.0918 45.9357 64.9943C34.6752 64.3454 23.8711 62.7581 13.8431 60.2995C11.3841 59.684 9.60368 57.5453 9.37847 54.9557L1.54781 50.1603C1.22521 49.9684 1 49.5784 1 49.1884V26.683C1 26.2931 1.19173 25.9366 1.54781 25.7112L9.34499 20.9188C9.4089 20.3674 9.57325 19.8495 9.79846 19.362C9.83193 19.234 9.86237 19.1365 9.92932 19.0055L14.1657 11.3311C14.1657 11.3311 14.1657 11.2976 14.1992 11.2976C18.0491 4.95147 25.6515 1 34.03 1H34.5139C37.5238 1 40.5641 1.6794 43.4767 3.00772C46.6144 4.43354 51.5965 5.27441 56.8037 5.27441C62.014 5.27441 66.996 4.43354 70.1338 3.00772C73.0767 1.6794 76.0867 1 79.0935 1H79.5805C87.9589 1 95.5613 4.95147 99.4112 11.2976L104.071 18.9751C104.135 19.103 104.199 19.234 104.232 19.362C104.427 19.8495 104.588 20.3674 104.652 20.9188L112.449 25.7416ZM9.28108 23.6364L3.29472 27.3289V48.5761L9.28108 52.2655V23.6364ZM14.2296 15.834C27.3984 12.6259 42.1832 10.9107 56.9985 10.9107C71.6859 10.9107 86.3733 12.5954 99.4752 15.767L97.4696 12.498C94.0092 6.82819 87.1829 3.3002 79.5805 3.3002H79.0935C76.4093 3.3002 73.6915 3.91562 71.0407 5.11294C67.5773 6.66672 62.3701 7.57461 56.7733 7.57461C51.1765 7.57461 45.9996 6.66672 42.5058 5.11294C39.852 3.91562 37.1677 3.3002 34.45 3.3002H33.9661C26.3941 3.3002 19.5373 6.82819 16.0739 12.498L14.2296 15.834ZM102.452 21.8876C102.452 20.0749 101.319 18.5546 99.7034 18.1312C86.5681 14.8926 71.8168 13.1774 56.9985 13.1774C42.1832 13.1774 27.4288 14.8926 14.2966 18.1312C12.644 18.5211 11.5119 20.0749 11.5119 21.8876V54.3403C11.5119 56.153 12.644 57.6763 14.2966 58.0968C24.1937 60.5584 34.8699 62.1122 45.9662 62.7581H45.9996C46.4196 62.7581 46.8092 62.4047 46.9066 61.9172C47.3905 59.4891 49.6882 57.7068 52.406 57.7068H61.4966C64.1809 57.7068 66.5091 59.4891 66.996 61.9172C67.0934 62.4047 67.4799 62.7581 67.8999 62.7581H67.9334C79.0631 62.1122 89.7058 60.5584 99.606 58.0968C101.256 57.6763 102.388 56.153 102.388 54.3403V21.8876H102.452ZM110.702 27.3289L104.716 23.6364V52.2351L110.702 48.5426V27.3289ZM65.4743 19.557C65.4743 18.9416 64.957 18.4236 64.3422 18.4236H49.6882C49.0735 18.4236 48.5561 18.9416 48.5561 19.557C48.5561 20.1724 49.0735 20.6903 49.6882 20.6903H64.3422C64.957 20.6903 65.4743 20.2059 65.4743 19.557Z" fill="#DDFF7C" stroke="#DDFF7C" stroke-width="0.75"/>
</svg>
