<svg width="1970" height="1503" viewBox="0 0 1970 1503" fill="none" xmlns="http://www.w3.org/2000/svg">
<g filter="url(#filter0_f_2002_5)">
<path d="M1508.52 481.521C1724.48 693.751 1385.02 876.521 993.578 820.748C721.823 782.027 194.195 1294.66 473.022 1035.02C751.849 775.381 484.522 569.522 540.522 451.022C596.522 332.521 655.036 415.528 913.645 546.599C1172.25 677.67 1421.52 396.021 1508.52 481.521Z" fill="url(#paint0_linear_2002_5)"/>
<path d="M1508.17 481.878C1562.09 534.869 1581.26 585.931 1573.72 631.822C1566.18 677.73 1531.9 718.624 1478.56 751.209C1371.89 816.38 1189.3 848.129 993.648 820.253C925.559 810.551 841.517 835.385 758.175 873.951C674.813 912.526 592.069 964.879 526.547 1010.32C473.136 1047.36 431.154 1079.82 409.61 1096.47C404.725 1100.25 400.891 1103.21 398.212 1105.23C397.933 1105.44 397.667 1105.64 397.414 1105.83C399.069 1104.24 401.426 1102.03 404.53 1099.14C408.633 1095.32 414.031 1090.34 420.81 1084.08C433.388 1072.47 450.722 1056.47 473.363 1035.39C543.125 970.426 578.756 908.798 593.808 851.026C608.859 793.255 603.319 739.388 590.817 689.971C584.567 665.264 576.575 641.666 568.545 619.249C566.299 612.98 564.051 606.804 561.837 600.723C556.132 585.052 550.656 570.007 546.037 555.599C533.207 515.582 527.065 480.669 540.974 451.235C554.961 421.639 569.047 404.759 586.264 397.997C603.477 391.237 623.966 394.534 650.914 405.683C677.855 416.83 711.132 435.771 753.871 460.14L754.836 460.69C797.383 484.95 849.24 514.518 913.419 547.045C1042.93 612.687 1170.09 574.96 1275.63 531.612C1293.43 524.3 1310.61 516.832 1327.08 509.671C1359.47 495.59 1389.12 482.699 1415.38 474.529C1455.02 462.2 1486.64 460.719 1508.17 481.878Z" stroke="black"/>
</g>
<defs>
<filter id="filter0_f_2002_5" x="0" y="0" width="1969.79" height="1502.74" filterUnits="userSpaceOnUse" color-interpolation-filters="sRGB">
<feFlood flood-opacity="0" result="BackgroundImageFix"/>
<feBlend mode="normal" in="SourceGraphic" in2="BackgroundImageFix" result="shape"/>
<feGaussianBlur stdDeviation="197" result="effect1_foregroundBlur_2002_5"/>
</filter>
<linearGradient id="paint0_linear_2002_5" x1="510.022" y1="769.521" x2="1412.11" y2="718.972" gradientUnits="userSpaceOnUse">
<stop stop-color="#F61A88"/>
<stop offset="0.568" stop-color="#1A50FF"/>
<stop offset="1" stop-color="#F61A88"/>
</linearGradient>
</defs>
</svg>
