<svg width="2148" height="1723" viewBox="0 0 2148 1723" fill="none" xmlns="http://www.w3.org/2000/svg">
<g opacity="0.4" filter="url(#filter0_f_2040_2)">
<rect x="213.945" y="289.027" width="581.849" height="77" transform="rotate(47.693 213.945 289.027)" fill="#61A3FF"/>
<rect width="581.849" height="77" transform="matrix(-0.673103 0.739549 0.739549 0.673103 1934.08 289.027)" fill="#61A3FF"/>
<rect x="649.796" y="192" width="581.849" height="77" transform="rotate(75.6474 649.796 192)" fill="#61A3FF"/>
<rect width="581.849" height="77" transform="matrix(-0.247888 0.968789 0.968789 0.247888 1498.23 192)" fill="#61A3FF"/>
<rect opacity="0.7" x="1154" y="247" width="440" height="161" transform="rotate(90 1154 247)" fill="#61A3FF"/>
<rect opacity="0.8" x="1154" y="991" width="582" height="161" transform="rotate(90 1154 991)" fill="#61A3FF"/>
<rect width="581.849" height="77" transform="matrix(0.247888 -0.968789 -0.968789 -0.247888 649.796 1493.78)" fill="#61A3FF"/>
<rect x="1498.23" y="1493.78" width="581.849" height="77" transform="rotate(-104.353 1498.23 1493.78)" fill="#61A3FF"/>
<rect width="581.849" height="77" transform="matrix(0.673103 -0.739549 -0.739549 -0.673103 213.945 1315.13)" fill="#61A3FF"/>
<rect x="1934.08" y="1315.13" width="581.849" height="77" transform="rotate(-132.307 1934.08 1315.13)" fill="#61A3FF"/>
</g>
<g filter="url(#filter1_f_2040_2)">
<path d="M434 434C434 434 846.444 505.321 1074 505.321C1301.56 505.321 1714 434 1714 434V1001C1714 1001 1301.56 929.679 1074 929.679C846.444 929.679 434 1001 434 1001L434 434Z" fill="url(#paint0_linear_2040_2)"/>
</g>
<defs>
<filter id="filter0_f_2040_2" x="7" y="42" width="2134.03" height="1681" filterUnits="userSpaceOnUse" color-interpolation-filters="sRGB">
<feFlood flood-opacity="0" result="BackgroundImageFix"/>
<feBlend mode="normal" in="SourceGraphic" in2="BackgroundImageFix" result="shape"/>
<feGaussianBlur stdDeviation="75" result="effect1_foregroundBlur_2040_2"/>
</filter>
<filter id="filter1_f_2040_2" x="0" y="0" width="2148" height="1435" filterUnits="userSpaceOnUse" color-interpolation-filters="sRGB">
<feFlood flood-opacity="0" result="BackgroundImageFix"/>
<feBlend mode="normal" in="SourceGraphic" in2="BackgroundImageFix" result="shape"/>
<feGaussianBlur stdDeviation="217" result="effect1_foregroundBlur_2040_2"/>
</filter>
<linearGradient id="paint0_linear_2040_2" x1="519.752" y1="801.378" x2="1542.66" y2="739.316" gradientUnits="userSpaceOnUse">
<stop stop-color="#F61A88"/>
<stop offset="0.568" stop-color="#1A50FF"/>
<stop offset="1" stop-color="#F61A88"/>
</linearGradient>
</defs>
</svg>
